#define x-face-logo_width 352
#define x-face-logo_height 96
static char x-face-logo_bits[] = {
 0x00,0x00,0x00,0x00,0x00,0x00,0x00,0x00,0x00,0x00,0x00,0x00,0x00,0x00,0x00,
 0x00,0x00,0x00,0x00,0x00,0x00,0x00,0x00,0x00,0x00,0x00,0x00,0x00,0x00,0x00,
 0x00,0x00,0x00,0x00,0x00,0x00,0x00,0x00,0x00,0x00,0x00,0x00,0x00,0x00,0x00,
 0x00,0x00,0x00,0x00,0x00,0x00,0x00,0x00,0x00,0x00,0x00,0x00,0x00,0x00,0x00,
 0x00,0x00,0x00,0x00,0x00,0x00,0x00,0x00,0x00,0x00,0x00,0x00,0x00,0x00,0x00,
 0x00,0x00,0x00,0x00,0x00,0x00,0x00,0x00,0x00,0x00,0x00,0x00,0x00,0x00,0x00,
 0x00,0x00,0x00,0x00,0x00,0x00,0x00,0x00,0x00,0x00,0x00,0x00,0x00,0x00,0x00,
 0x00,0x00,0x00,0x00,0x00,0x00,0x00,0x00,0x00,0x00,0x00,0x00,0x00,0x00,0x00,
 0x00,0x00,0x00,0x00,0x00,0x00,0x00,0x00,0x00,0x00,0x00,0x00,0x00,0x00,0x00,
 0x00,0x00,0x00,0x00,0x00,0x00,0x00,0x00,0x00,0x00,0x00,0x00,0x00,0x00,0x00,
 0x00,0x00,0x00,0x00,0x00,0x00,0x00,0x00,0x00,0x00,0x00,0x00,0x00,0x00,0x00,
 0x00,0x00,0x00,0x00,0x00,0x00,0x00,0x00,0x00,0x00,0x00,0x00,0x00,0xe0,0xff,
 0xff,0xff,0x1f,0x00,0xfe,0xff,0xff,0x07,0x00,0x00,0x00,0xff,0xff,0xff,0xff,
 0xff,0xff,0xff,0x01,0x00,0x00,0x00,0x00,0x00,0x00,0x00,0x00,0x00,0x00,0x00,
 0x00,0x00,0x00,0x00,0x00,0x00,0x00,0x00,0x00,0x00,0x00,0x00,0x70,0x6b,0x6b,
 0x6b,0x3b,0x00,0xdb,0xda,0xda,0x0e,0x00,0x00,0x80,0xb6,0xb6,0xb6,0xb6,0xb6,
 0xb6,0xb6,0x03,0x00,0x00,0x00,0x00,0x00,0x00,0x00,0x00,0x00,0x00,0x00,0x00,
 0x00,0x00,0x00,0x00,0x00,0x00,0x00,0x00,0x00,0x00,0x00,0xd0,0xdf,0xdf,0xdf,
 0x6f,0x00,0xf7,0xf7,0xf7,0x1b,0x00,0x00,0x80,0xff,0xfd,0xfd,0xfd,0xfd,0xfd,
 0xfb,0x07,0x00,0x00,0x00,0x00,0x00,0x00,0x00,0x00,0x00,0x00,0x00,0x00,0x00,
 0x00,0x00,0x00,0x00,0x00,0x00,0x00,0x00,0x00,0x00,0x70,0x7d,0x7d,0x7d,0xfd,
 0x00,0x5e,0x5f,0x5f,0x3f,0x00,0x00,0x80,0xd5,0xd7,0xd7,0xd7,0xaf,0x6f,0x5f,
 0x07,0x00,0x00,0x00,0x00,0x00,0x00,0x00,0x00,0x00,0x00,0x00,0x00,0x00,0x00,
 0x00,0x00,0x00,0x00,0x00,0x00,0x00,0x00,0x00,0xe0,0xef,0xef,0xef,0xf7,0x00,
 0xfa,0xfb,0xfb,0x3d,0x00,0x00,0x00,0xff,0xfe,0xfe,0x7e,0xfb,0xf6,0xf7,0x07,
 0x00,0x00,0x00,0x00,0x00,0x00,0x00,0x00,0x00,0x00,0x00,0x00,0x00,0x00,0x00,
 0x00,0x00,0x00,0x00,0x00,0x00,0x00,0x00,0xe0,0x7b,0x7b,0xfb,0xff,0x00,0xfe,
 0xde,0xfe,0x3f,0x00,0x00,0x00,0xbe,0xb7,0xb7,0xff,0xff,0x5f,0x7d,0x07,0x00,
 0x00,0x00,0x00,0x00,0x00,0x00,0x00,0x00,0x00,0x00,0x00,0x00,0x00,0x00,0x00,
 0x00,0x00,0x00,0x00,0x00,0x00,0x00,0x80,0xdf,0xdf,0xdf,0x7f,0x55,0xb8,0xf7,
 0xff,0x5f,0x05,0x00,0x00,0xf8,0xfd,0xfd,0xff,0xff,0xff,0xd7,0x57,0x01,0x00,
 0x00,0x00,0x00,0x00,0x00,0x00,0x00,0x00,0x00,0x00,0x00,0x00,0x00,0x00,0x00,
 0x00,0x00,0x00,0x00,0x00,0x00,0x00,0x70,0x75,0xf5,0x55,0x15,0xc0,0xbd,0xfe,
 0xaa,0x12,0x00,0x00,0x80,0x57,0x57,0x5f,0x55,0xf9,0xfe,0xaf,0x04,0x00,0x00,
 0x00,0x00,0x00,0x00,0x00,0x00,0x00,0x00,0x00,0x00,0x00,0x00,0x00,0x00,0x00,
 0x00,0x00,0x00,0x00,0x00,0x00,0xe0,0xff,0xff,0xfb,0xaf,0x60,0xef,0xaf,0xfd,
 0x0d,0x00,0x00,0x80,0xfe,0xff,0xb7,0xbb,0xdf,0xb7,0xff,0x02,0x00,0x00,0x00,
 0x00,0x00,0x00,0x00,0x00,0x00,0x00,0x00,0x00,0x00,0x00,0x00,0x00,0x00,0x00,
 0x00,0x00,0x00,0x00,0x00,0x60,0x5b,0xdb,0xef,0x5e,0xc0,0xfb,0xff,0xf7,0x2b,
 0x00,0x00,0x80,0xdb,0xda,0xff,0xff,0x7e,0xfd,0x77,0x05,0x00,0x00,0x00,0x00,
 0x00,0x00,0x00,0x00,0x00,0x00,0x00,0x00,0x00,0x00,0x00,0x00,0x00,0x00,0x00,
 0x00,0x00,0x00,0x00,0xc4,0xff,0xff,0xff,0x2f,0xf0,0xfe,0xff,0xdf,0x17,0x00,
 0x00,0x00,0xff,0xff,0xff,0xff,0x77,0xaf,0xff,0x05,0x00,0x00,0x00,0x00,0x00,
 0x00,0x00,0x00,0x00,0x00,0x00,0x00,0x00,0x00,0x00,0x00,0x00,0x00,0x00,0x00,
 0x00,0x00,0x00,0x90,0xd5,0xaa,0xff,0x5b,0xb8,0xf7,0xff,0xff,0x0b,0x00,0x00,
 0x80,0xb5,0xd6,0xff,0xf7,0x7f,0xfa,0xff,0x05,0x00,0x00,0x00,0x00,0x00,0x00,
 0x00,0x00,0x00,0x00,0x00,0x00,0x00,0x00,0x00,0x00,0x00,0x00,0x00,0x00,0x00,
 0x00,0x00,0x88,0xff,0xff,0xff,0x2f,0xfc,0xfd,0xff,0xbf,0x2a,0x00,0x00,0xc0,
 0xff,0xff,0xff,0x5f,0x2d,0xde,0xff,0x05,0x00,0x00,0x00,0x00,0x00,0x00,0x00,
 0x00,0x00,0x00,0x00,0x00,0x00,0x00,0x00,0x00,0x00,0x00,0x00,0x00,0x00,0x00,
 0x00,0x92,0xb6,0xb6,0xbf,0x04,0x68,0xff,0xff,0xdf,0x0a,0x00,0x00,0xc0,0xad,
 0xb5,0xff,0x55,0x55,0xf6,0x7f,0x03,0x00,0x00,0x00,0x00,0x00,0x00,0x00,0x00,
 0x00,0x00,0x00,0x00,0x00,0x00,0x00,0x00,0x00,0x00,0x00,0x00,0x00,0x00,0x00,
 0x80,0xff,0xff,0xff,0x0a,0xfe,0xff,0xff,0x45,0x02,0x00,0x00,0x40,0xff,0xff,
 0xff,0xab,0x12,0xdc,0xff,0x05,0x00,0x00,0x00,0x00,0x00,0x00,0x00,0x00,0x00,
 0x00,0x00,0x00,0x00,0x00,0x00,0x00,0x00,0x00,0x00,0x00,0x00,0x00,0x00,0x08,
 0x6b,0x5b,0x7f,0x01,0xae,0xdf,0xff,0x2b,0x00,0x00,0x00,0xc0,0x6b,0xed,0x7f,
 0x05,0x00,0xfe,0xff,0x02,0x00,0x00,0x00,0x00,0x00,0x00,0x00,0x00,0x00,0x00,
 0x00,0x00,0x00,0x00,0x00,0x00,0x00,0x00,0x00,0x00,0x00,0x00,0x00,0x00,0xfe,
 0xfd,0xbf,0x80,0xfb,0xef,0xbf,0x04,0x00,0x00,0x00,0xc0,0xfe,0xff,0xff,0x01,
 0x00,0xea,0xff,0x02,0x00,0x00,0x00,0x00,0x00,0x00,0x00,0x00,0x00,0x00,0x00,
 0x00,0x00,0x00,0x00,0x00,0x00,0x00,0x00,0x00,0x00,0x00,0x00,0x00,0xae,0x6f,
 0xfd,0xc2,0xef,0xf3,0xff,0x02,0x00,0x00,0x00,0xe0,0x5b,0xeb,0x7f,0x02,0x00,
 0xfe,0xff,0x02,0x00,0x00,0x00,0x00,0x00,0x00,0x00,0x00,0x00,0x00,0x00,0x00,
 0x00,0x00,0x00,0x00,0x00,0x00,0x00,0x00,0x00,0x00,0x00,0x00,0x7a,0xfb,0xbf,
 0xa0,0xfd,0xfb,0x2f,0x00,0x00,0x00,0x00,0x60,0xff,0xff,0xbf,0x01,0x00,0xda,
 0xbf,0x01,0x00,0x00,0x00,0x00,0x00,0x00,0x00,0x00,0x00,0x00,0x00,0x00,0x00,
 0x00,0x00,0x00,0x00,0x00,0x00,0x00,0x00,0x00,0x00,0x00,0xee,0xdf,0xfe,0xe0,
 0xff,0xf4,0x9f,0x00,0x00,0x00,0x00,0xc0,0xd6,0xf6,0xff,0x00,0x00,0xfe,0xfe,
 0x02,0x00,0x00,0x00,0x00,0x00,0x00,0x00,0x00,0x00,0x00,0x00,0x00,0x00,0x00,
 0x00,0x00,0x00,0x00,0x00,0x00,0x00,0x00,0x00,0x00,0xbc,0xed,0xfb,0xf0,0x7a,
 0xfe,0x25,0x00,0x00,0x00,0x00,0xe0,0xff,0xff,0x7f,0x02,0x00,0xec,0x7e,0x01,
 0x00,0x00,0x00,0x00,0x00,0x00,0x00,0x00,0x00,0x00,0x00,0x00,0x00,0x00,0x00,
 0x00,0x00,0x00,0x00,0x00,0x00,0x00,0x00,0x00,0xf4,0x7b,0x7f,0xb0,0x7f,0xfd,
 0x0b,0x00,0x00,0x00,0x00,0x70,0x5b,0xf5,0xbf,0x00,0x00,0xfc,0xfd,0x00,0x00,
 0x00,0x00,0x00,0x00,0x00,0x00,0x00,0x00,0x00,0x00,0x00,0x00,0x00,0x00,0x00,
 0x00,0x00,0x00,0x00,0x00,0x00,0x00,0x00,0xd8,0xde,0x37,0xec,0x1f,0xff,0x05,
 0x00,0x00,0x00,0x00,0xd0,0xff,0xff,0x7f,0x01,0x00,0xf8,0x5e,0x02,0x00,0xf8,
 0x1f,0xf8,0x1f,0x00,0x00,0x00,0x00,0xf8,0x1f,0x00,0x00,0x00,0x00,0xe0,0xff,
 0x00,0x00,0x00,0x00,0x00,0x00,0x00,0xf8,0x77,0x3d,0x7e,0xcf,0xff,0x22,0x00,
 0x00,0x00,0x00,0xf0,0x6a,0xfb,0x5f,0x00,0x00,0x00,0xfe,0x00,0x80,0x6f,0xfb,
 0x6f,0x7b,0x00,0x00,0x00,0x80,0x6f,0xfb,0x01,0x00,0x00,0x00,0x7f,0xdb,0x0f,
 0x00,0x00,0x00,0x00,0x00,0x00,0x58,0xfd,0x3f,0xdb,0x57,0x5f,0x01,0x00,0x00,
 0x00,0x00,0xb0,0xff,0xff,0xbf,0x00,0x00,0x80,0x5d,0x01,0xf0,0xde,0xef,0xde,
 0xff,0x01,0x00,0x00,0xf0,0xdf,0xdf,0x0f,0x00,0x00,0xc0,0xdf,0x7e,0x3b,0x00,
 0x00,0x00,0x00,0x00,0x00,0xf0,0x5f,0xab,0xfe,0xe3,0x7f,0x04,0x00,0x00,0x00,
 0x00,0xf0,0xad,0xf5,0x5f,0x00,0x00,0x00,0x7e,0x00,0xdc,0x7b,0xbd,0x7b,0xd5,
 0x03,0x00,0x00,0xfe,0x7a,0x75,0x1b,0x00,0x00,0xb0,0xf5,0xeb,0x6f,0x00,0x00,
 0x00,0x00,0x00,0x00,0xb0,0xf5,0xff,0xef,0xd7,0x2f,0x00,0x00,0x00,0x00,0x00,
 0x58,0xff,0xff,0xbf,0x00,0x38,0x40,0xab,0x00,0x7f,0xef,0xf7,0xef,0xff,0x01,
 0x00,0x80,0xaf,0xef,0xff,0x3f,0x00,0x00,0xfc,0x7f,0xbf,0xfd,0x00,0x00,0x00,
 0x00,0x00,0x00,0xe0,0xdf,0xba,0xfa,0xf1,0x9b,0x00,0x00,0x00,0x00,0x00,0xf8,
 0x6b,0xfd,0x5f,0x00,0x7c,0x00,0x5c,0xc0,0xeb,0xfd,0x7f,0xbd,0xed,0x01,0x00,
 0x40,0xfb,0xfe,0xad,0x6a,0x00,0x00,0x6f,0xed,0xf7,0xaf,0x01,0x00,0x00,0x00,
 0x00,0x00,0x60,0xfb,0xef,0xff,0xfc,0x27,0x00,0x78,0x00,0x00,0x00,0xd8,0xfe,
 0xff,0x5f,0x00,0xec,0x00,0x25,0xe0,0xbe,0xf7,0xff,0xf7,0xff,0x55,0x00,0xf0,
 0xdf,0xff,0xff,0xff,0x00,0x80,0xfb,0xff,0xbf,0xfa,0x03,0x00,0x00,0x00,0x00,
 0x00,0xc0,0xaf,0x7d,0x7b,0xf5,0x0b,0x00,0xfe,0x03,0x00,0x00,0xf0,0x5b,0xfb,
 0x2f,0x00,0xfa,0x80,0x28,0xb8,0xf7,0xfe,0x84,0x5e,0xeb,0x2b,0x01,0xd8,0xf6,
 0x0f,0xb6,0xdb,0x05,0xe0,0x5e,0xfb,0xe2,0x6f,0x17,0x00,0x00,0x00,0x00,0x00,
 0x40,0xfd,0xdf,0x3f,0xfe,0x05,0x40,0xd7,0x0e,0x00,0x00,0x78,0xff,0xff,0x5f,
 0x00,0xee,0x00,0x04,0xec,0xde,0x5f,0x8b,0xfb,0xff,0xaf,0x00,0xfc,0xbf,0x6f,
 0xfc,0xfe,0x13,0xb0,0xf7,0x7f,0xa5,0xfd,0x4f,0x00,0x00,0x00,0x00,0x00,0xc0,
 0x6f,0x75,0xbf,0xbd,0x12,0xc0,0xff,0x1b,0x00,0x00,0xdc,0xad,0xfd,0x2f,0x00,
 0xff,0x00,0x01,0xfe,0xfb,0xbf,0x87,0x6f,0xed,0x7e,0x01,0x6a,0xf5,0xb3,0xb4,
 0xaf,0x0b,0xe8,0x7d,0x5f,0xe7,0xb7,0xae,0x00,0x00,0x00,0x00,0x00,0x00,0xfb,
 0xff,0xdf,0xff,0x01,0x40,0x6d,0x3f,0x00,0x00,0x74,0xff,0xff,0x37,0x80,0xf5,
 0x54,0x00,0x55,0xbf,0xef,0xc7,0xfd,0xff,0xbf,0x00,0xff,0xff,0xfd,0xfc,0xfa,
 0x5f,0x7c,0xd7,0xef,0xc3,0xfe,0x3f,0x01,0x00,0x00,0x00,0x00,0x80,0xaf,0xad,
 0xff,0x7e,0x04,0xe0,0xfb,0x6d,0x00,0x00,0xfc,0xd5,0xfe,0x1f,0xc0,0x7f,0x22,
 0x80,0xff,0xeb,0xfb,0x43,0xb7,0xf6,0xff,0x82,0xad,0xed,0xff,0xd4,0xdf,0x2f,
 0xd8,0xff,0xff,0xe7,0xab,0xfd,0x02,0x00,0x00,0x00,0x00,0x80,0xfd,0xff,0xfe,
 0x5f,0x01,0x70,0x5f,0xff,0x00,0x00,0xac,0xbf,0x0f,0x00,0xa0,0x76,0x58,0xc1,
 0xdb,0xfe,0xff,0xc3,0xfd,0xff,0xbf,0x00,0xff,0xff,0xfe,0xf8,0xf6,0x1f,0xfe,
 0xda,0xf7,0x63,0xff,0xbf,0x04,0x00,0x00,0x00,0x00,0x00,0xb7,0xda,0xff,0x2f,
 0x00,0xd0,0xf7,0xdb,0x05,0x00,0xfe,0xfd,0x0e,0x00,0xf0,0xff,0x2e,0xa0,0xfe,
 0xfb,0xff,0xe3,0xd7,0xfa,0xbf,0xc0,0xb5,0xfa,0xff,0xb9,0xbf,0x0f,0xaf,0xff,
 0xff,0xc3,0x6d,0xfd,0x03,0x00,0x00,0x00,0x00,0x00,0xfd,0x7f,0xff,0x9b,0x00,
 0x70,0xdd,0xfe,0x12,0x00,0x6a,0xd7,0xdb,0xfd,0xdf,0x7a,0xda,0xe0,0x57,0xff,
 0xff,0xa3,0xfe,0xff,0x7f,0xe1,0xff,0xff,0xff,0xea,0xf5,0x8f,0xfb,0xed,0xff,
 0x61,0xff,0xff,0x0a,0x00,0x00,0x00,0x00,0x00,0x6e,0xeb,0xfd,0x27,0x00,0xf8,
 0xff,0xd7,0x0b,0x00,0xfe,0x7f,0x7f,0xef,0xf6,0x7f,0x7f,0xb0,0xfd,0xfd,0xff,
 0xe1,0x5b,0xfb,0x5f,0xe0,0xd6,0xfe,0xff,0x79,0xff,0x87,0x6e,0xff,0xff,0xf1,
 0xb7,0xfd,0x0b,0x00,0x00,0x00,0x00,0x00,0xfa,0xbf,0xff,0x0d,0x00,0x58,0x6b,
 0xfd,0x57,0x00,0xb6,0xf5,0xed,0xbb,0x5f,0xbb,0x2e,0xf8,0xb7,0xff,0xff,0x70,
 0xff,0xff,0xbf,0xb0,0xff,0xff,0xbf,0xd2,0xff,0xc3,0xff,0xf5,0xff,0xb0,0xed,
 0xff,0x0d,0x00,0x00,0x00,0x00,0x00,0xae,0xf6,0xfd,0x13,0x00,0xf0,0xff,0xdf,
 0x2f,0x00,0xdf,0xbf,0xff,0xee,0xfb,0xbf,0x5f,0xd8,0xfe,0xfd,0x7f,0xd0,0xd7,
 0xfa,0x5f,0xe0,0xb5,0xfe,0xdf,0xe0,0xff,0x83,0xb5,0xff,0x7f,0x78,0xbf,0xfe,
 0x0b,0x00,0x00,0x00,0x00,0x00,0xfc,0x5f,0xf7,0x06,0x00,0xb0,0xad,0xf6,0xbf,
 0x00,0x7b,0xed,0xaa,0xbf,0xde,0x7a,0x3f,0xbc,0x6f,0xff,0xff,0x78,0xfd,0xff,
 0x6f,0x78,0xff,0xff,0x7f,0xc0,0xff,0xe3,0xff,0xfb,0x7f,0xe8,0xf7,0xff,0x17,
 0x00,0x00,0x00,0x00,0x00,0xdf,0xfa,0xff,0x03,0x00,0xe0,0xfe,0xfd,0x5f,0x00,
 0xee,0xff,0xff,0xff,0xf7,0xff,0x1f,0xf6,0xfa,0xff,0x5f,0xf0,0xb7,0xfe,0x3f,
 0xd8,0x5b,0xff,0x1f,0x01,0xfc,0x61,0xad,0xfe,0x3f,0xbc,0x7d,0xff,0x0f,0x00,
 0x00,0x00,0x00,0x80,0xf6,0xdf,0xfa,0x09,0x00,0xe0,0xdb,0xd7,0x7f,0x01,0x7f,
 0xab,0xff,0xff,0xbf,0xfe,0x17,0xdc,0xaf,0xff,0x3f,0xd8,0xfe,0xfd,0x1f,0xfc,
 0xfe,0xff,0x2f,0x00,0xfa,0xf1,0xff,0xff,0x1f,0xec,0xd7,0xff,0x17,0x00,0x00,
 0x00,0x00,0x80,0xbf,0xf6,0xff,0x06,0x00,0x60,0xff,0xfe,0xbf,0x80,0xdb,0xff,
 0xff,0xaf,0xea,0xfb,0x0f,0xf7,0xfd,0xff,0x57,0xfc,0xdb,0xff,0x2f,0xb4,0x6b,
 0xff,0x2f,0x00,0xfd,0x50,0x6b,0xfb,0x07,0xbf,0xfe,0xff,0x0b,0x00,0x00,0x00,
 0x00,0x40,0xeb,0xbf,0xf6,0x15,0x00,0xc0,0xab,0xfb,0x7f,0x81,0x7d,0xed,0xff,
 0xff,0x76,0xff,0x0f,0x5f,0xdf,0xff,0x1f,0x6c,0xf7,0xfe,0x17,0xfe,0xff,0xff,
 0x17,0x00,0xf4,0xf8,0xff,0xff,0x83,0xf6,0xb7,0xff,0x17,0x00,0x00,0x00,0x00,
 0xe0,0x7f,0xeb,0xff,0x0b,0x00,0xc0,0xfe,0xff,0xbf,0x00,0xef,0xff,0xff,0xfb,
 0xc7,0xff,0x8f,0xfb,0xf5,0xff,0x0b,0xde,0xbf,0xff,0x2f,0xac,0xb6,0xff,0x2b,
 0x00,0x68,0x68,0xad,0xfe,0xc0,0xbf,0xfd,0xff,0x0b,0x00,0x00,0x00,0x00,0xf0,
 0xda,0x7f,0xeb,0x17,0x00,0x80,0x6f,0xfd,0x7f,0x81,0xfb,0xd6,0xff,0xdf,0xe7,
 0xfd,0x87,0xbe,0xef,0xff,0x17,0x7a,0xed,0xfe,0x17,0xff,0xff,0xff,0x0b,0x00,
 0x55,0xf8,0xff,0x7f,0xc0,0xea,0xf7,0xff,0x0f,0x00,0x00,0x00,0x00,0xb8,0xff,
 0xda,0xff,0x17,0x00,0x00,0xfb,0xff,0xff,0x80,0xae,0xff,0xff,0xff,0x67,0xff,
 0x87,0xeb,0xfe,0xff,0x07,0xef,0xff,0xff,0x0f,0xb7,0xd5,0xff,0x07,0x00,0x20,
 0x5c,0xdb,0x1e,0xf8,0xbf,0xfe,0xff,0x02,0x00,0x00,0x00,0x00,0xe8,0xbe,0xff,
 0xda,0x2f,0x00,0x00,0xfc,0xff,0x3f,0xc1,0xff,0xea,0xff,0x6f,0xc5,0xff,0xc7,
 0xff,0xeb,0xff,0x02,0xbd,0x55,0xff,0x0b,0xfd,0xff,0xff,0x12,0x00,0x48,0xf4,
 0xfd,0x0f,0xdc,0xf6,0xff,0xff,0x17,0x00,0x00,0x00,0x00,0xfc,0xff,0xad,0xff,
 0x1f,0x00,0x00,0xf4,0xff,0xbf,0x40,0xdb,0xff,0xff,0x95,0xe2,0xfe,0xc3,0x5a,
 0xff,0xff,0x85,0xf7,0xff,0xff,0x0f,0xaf,0xda,0xff,0x05,0x00,0x00,0xbc,0x6f,
 0x0f,0xf7,0xdf,0xff,0xff,0x01,0x00,0x00,0x00,0x00,0x56,0x4f,0xff,0xad,0x57,
 0x00,0x00,0xf0,0xff,0x5f,0xc0,0xfd,0xed,0xff,0x52,0xa9,0xff,0x83,0xff,0xfb,
 0xff,0x82,0xbe,0xb6,0xff,0x8b,0xfb,0xff,0xff,0x05,0x00,0x00,0xee,0xdb,0xff,
 0x5f,0xfb,0xff,0x7f,0x05,0x00,0x00,0x00,0x00,0xfe,0x87,0x6b,0xff,0x5f,0x00,
 0x00,0xd4,0xff,0x5f,0xc1,0x57,0xff,0x7f,0x05,0xe0,0xff,0xe3,0x6d,0xf7,0xff,
 0xc2,0xef,0xff,0xff,0x87,0xde,0xd6,0xff,0x02,0x00,0x00,0xba,0xfe,0xdd,0xfa,
 0xff,0xff,0xff,0x02,0x00,0x00,0x00,0x80,0xdb,0x97,0xfe,0x6b,0x3f,0x00,0x00,
 0xd0,0xff,0x2f,0xe0,0xfe,0xeb,0xbf,0x01,0xc0,0xef,0xe1,0xfb,0xfe,0x7f,0x41,
 0x7b,0xab,0xff,0x8b,0xf7,0xff,0xff,0x02,0x00,0x00,0xfe,0x6f,0xf7,0xbf,0xff,
 0xff,0x5f,0x01,0x00,0x00,0x00,0xc0,0xff,0xb3,0xb7,0xfe,0xbf,0x00,0x00,0x40,
 0xff,0x15,0xa0,0xdb,0xfe,0xff,0x00,0x80,0xf3,0x61,0xdf,0xfb,0xbf,0xc0,0xdd,
 0xff,0xff,0x85,0x7d,0xeb,0xff,0x02,0x00,0x00,0xd6,0xba,0xbf,0xf6,0xab,0xff,
 0x7f,0x00,0x00,0x00,0x00,0x60,0xf5,0x29,0xfd,0xb7,0xbe,0x00,0x00,0x50,0x7b,
 0x4b,0xe0,0xff,0xfb,0x7f,0x02,0x00,0xd0,0xf1,0x76,0xff,0xdf,0xe0,0xf7,0xba,
 0xff,0x45,0xaf,0xff,0x7f,0x01,0x00,0x00,0xfe,0xff,0xed,0x7f,0xf5,0xff,0x17,
 0x01,0x00,0x00,0x00,0xd0,0xff,0x3c,0xaf,0xfd,0xdf,0x00,0x00,0x00,0xad,0x05,
 0xa0,0x56,0xf7,0xbf,0x00,0x00,0xe8,0xb1,0xff,0xfd,0x7f,0x60,0xbf,0xef,0xff,
 0xc6,0xfb,0xed,0xff,0x02,0x00,0x00,0xb7,0xd6,0xfe,0xbf,0xfa,0xfd,0x57,0x00,
 0x00,0x00,0x00,0x78,0x7b,0x7e,0xfb,0xaf,0x7d,0x02,0x00,0x88,0xa8,0x10,0xe0,
 0xff,0xff,0x7f,0x01,0x00,0xe8,0xe1,0xab,0xff,0x3f,0xf0,0xed,0xfd,0xff,0xc3,
 0x6e,0xff,0x7f,0x01,0x00,0x00,0xfd,0xff,0xff,0x8b,0xfe,0x7c,0x09,0x00,0x00,
 0x00,0x00,0xe8,0xff,0x7d,0xde,0xfa,0x7f,0x01,0x00,0x00,0x44,0x02,0xf0,0xda,
 0xfa,0xbf,0x00,0x00,0x50,0xb8,0xfe,0xfd,0x5f,0xb8,0x7f,0xd7,0x9f,0x85,0xff,
 0xeb,0x7f,0x01,0x40,0x00,0xaf,0xb5,0xff,0xef,0xff,0xd8,0x02,0x00,0x00,0x00,
 0x00,0xfc,0x3e,0x7e,0xf6,0xdf,0xfe,0x01,0x00,0x00,0x10,0x00,0xb0,0xff,0xff,
 0x5f,0x00,0x00,0xa0,0xf8,0x6f,0xff,0x1f,0xfa,0xd5,0xff,0x0f,0xc0,0xb5,0xfe,
 0xbf,0x00,0xc0,0x01,0xfb,0xff,0xff,0xbf,0x7e,0x5c,0x11,0x00,0x00,0x00,0x00,
 0xae,0xdf,0xff,0xbc,0xf6,0xfb,0x02,0x00,0x00,0x00,0x00,0xe0,0x56,0xfb,0xbf,
 0x00,0x00,0x54,0xd8,0xfa,0xff,0x17,0xec,0xff,0xf5,0x8f,0x43,0xff,0xef,0x7f,
 0x01,0x60,0x03,0x6e,0xad,0xff,0xf7,0x37,0x34,0x00,0x00,0x00,0x00,0x00,0xfa,
 0xaf,0x7f,0xec,0xbf,0x7e,0x05,0x00,0x00,0x00,0x00,0xf0,0xff,0xff,0x7f,0x00,
 0x00,0x80,0xf0,0x5f,0xfd,0x1f,0xfe,0x6d,0xdf,0x87,0xc6,0xd7,0xfa,0xbf,0x00,
 0xe0,0x07,0xff,0xff,0xff,0xff,0x1f,0xfc,0x00,0x00,0x00,0x00,0x80,0x6f,0xd7,
 0xbf,0x78,0xeb,0xf7,0x03,0x00,0x00,0x00,0x00,0xb8,0xda,0xfa,0x9f,0x00,0x00,
 0x20,0xbc,0xf6,0xff,0x07,0x76,0xff,0xfd,0x83,0x47,0xfd,0xef,0xdf,0x00,0x70,
 0x0f,0xab,0xb5,0xff,0xff,0x0a,0xde,0x00,0x00,0x00,0x00,0xc0,0xff,0xe7,0x5f,
 0xd8,0xff,0xfe,0x09,0x00,0x00,0x00,0x00,0xe8,0xff,0xff,0x5f,0x00,0x00,0x00,
 0xec,0x7f,0xff,0x07,0xfd,0xab,0xf7,0xc3,0xcf,0xb7,0xfd,0x7f,0x00,0xd8,0x07,
 0xfe,0xff,0xff,0xaf,0x05,0xf7,0x00,0x00,0x00,0x00,0xe0,0xea,0xf3,0x5f,0xf0,
 0xb6,0xfb,0x07,0x00,0x00,0x00,0x00,0x78,0x6b,0xfd,0x2f,0x00,0x00,0x00,0xbc,
 0xd5,0xff,0x83,0xff,0xfe,0xfe,0xe1,0xce,0xde,0xd7,0x3f,0x01,0xf0,0x07,0xb6,
 0x56,0xff,0xb5,0x82,0xfd,0x08,0x00,0x00,0x00,0xb0,0xff,0xfd,0x2b,0xb0,0xff,
 0xef,0x0b,0x00,0x00,0x00,0x00,0xd8,0xff,0xff,0x5f,0x00,0x00,0x00,0xf4,0xff,
 0xfe,0xc1,0xff,0xdb,0xfb,0xb0,0x8f,0xfb,0xfe,0xbf,0x00,0xbc,0x23,0xfe,0xff,
 0xff,0x4b,0xc0,0x7f,0x22,0x00,0x00,0x00,0xe8,0xed,0xf5,0x0f,0xf0,0x55,0xfd,
 0x15,0x00,0x00,0x00,0x00,0xf8,0xad,0xfd,0x2f,0x00,0x00,0x00,0xdc,0xb6,0x7f,
 0xe0,0x5e,0x7f,0x7f,0xf8,0x07,0xbf,0xdb,0x7f,0x00,0xf6,0x43,0xaa,0x6d,0xff,
 0x06,0x60,0x3d,0x14,0x00,0x00,0x00,0x7c,0xff,0xfe,0x45,0x40,0xff,0xd7,0x0f,
 0x00,0x00,0x00,0x00,0x5c,0xff,0xff,0x37,0x00,0x00,0x00,0x78,0xff,0x3e,0xf0,
 0xcf,0xed,0x7b,0xd4,0x87,0xeb,0xff,0xaf,0x00,0xff,0x51,0xfe,0xfe,0x7f,0x13,
 0xd0,0x3f,0xa9,0x00,0x00,0x00,0xda,0x7d,0xff,0x16,0xe0,0xdb,0xfe,0x27,0x00,
 0x00,0x00,0x00,0xf4,0xd5,0xfe,0x1f,0x00,0x00,0x00,0xec,0xab,0x0f,0xb8,0x67,
 0xbf,0x3e,0xfe,0x93,0x7e,0xad,0x7f,0x80,0xed,0xa8,0xdc,0x57,0xfd,0x01,0x78,
 0x1f,0x2d,0x00,0x00,0x00,0xff,0x3f,0xff,0x03,0xe0,0xfe,0xb7,0x1f,0x00,0x00,
 0x00,0x00,0xbc,0xff,0xff,0x4f,0x00,0x00,0x00,0xf8,0xfe,0x0a,0xec,0xe3,0xf5,
 0x37,0xed,0x01,0xdb,0xff,0xbf,0x40,0xff,0xf4,0xf4,0xfd,0xff,0x02,0xec,0x8f,
 0x56,0x00,0x00,0x00,0xab,0xde,0xbf,0x00,0xa0,0x6f,0xfd,0x2f,0x00,0x00,0x00,
 0x00,0xee,0xb6,0xfe,0x17,0x00,0x00,0x00,0xa8,0xef,0xff,0xff,0xa3,0xbf,0xfd,
 0xff,0x69,0x7f,0x6b,0x03,0xe0,0x7d,0xda,0x59,0xb7,0x0b,0x00,0xbe,0x47,0x5f,
 0x00,0x00,0xc0,0xff,0x1f,0xff,0x02,0xe0,0xfa,0xd7,0x00,0x00,0x00,0x00,0x00,
 0xfb,0xff,0x0f,0x18,0x00,0x00,0x00,0x78,0xbb,0xd6,0xed,0xe1,0xed,0xaf,0xf6,
 0x50,0xd6,0xff,0x05,0xb8,0x3f,0xf4,0xf8,0xff,0x1e,0xa0,0xf7,0xa3,0x5d,0x00,
 0x00,0xf0,0xda,0x0e,0x5e,0x00,0xd0,0x5f,0xbf,0x03,0x00,0x00,0x00,0x80,0x5e,
 0xab,0x0d,0x00,0x00,0x00,0x00,0xf0,0xff,0x7f,0xff,0x40,0xff,0xfa,0x7f,0xb4,
 0xfc,0xb5,0xef,0xff,0x1f,0xbd,0xd2,0xda,0xef,0xff,0xfd,0x53,0x2f,0x00,0xf0,
 0xbf,0xff,0xfb,0x7e,0xe1,0xff,0xf6,0xfb,0xfb,0x00,0x00,0x00,0xff,0xf7,0xff,
 0x77,0x27,0x00,0x00,0x00,0x50,0xad,0xed,0x7f,0xc8,0xab,0xdf,0x7a,0xe9,0x5e,
 0xef,0xbd,0x56,0x4f,0x76,0xf1,0xff,0xba,0x56,0xff,0xe1,0x2b,0x00,0xb8,0xed,
 0x6d,0x5f,0x1f,0xf0,0xb6,0xdf,0xde,0xde,0x03,0x00,0x80,0xad,0xbd,0xb6,0xde,
 0x1d,0x00,0x00,0x00,0xf0,0xff,0xbf,0x3e,0xca,0xfe,0xf6,0x3f,0xbc,0xf5,0x7f,
 0xf7,0xff,0x87,0xbd,0x40,0xab,0xff,0xff,0x7b,0xb4,0x17,0x00,0x68,0x7f,0xbf,
 0xf7,0x57,0xb0,0xfd,0xfa,0xb7,0xf7,0x07,0x00,0x80,0xff,0xef,0xff,0xfb,0x3f,
 0x00,0x00,0x00,0x60,0x6b,0xf5,0x8f,0xda,0xdb,0xbf,0xbf,0xf5,0xd8,0xda,0xbf,
 0xf5,0x43,0xaf,0xc0,0xff,0xd6,0x6a,0x3f,0xfa,0x0a,0x00,0xf8,0xdb,0xeb,0x7d,
 0x1f,0xe0,0xd7,0x6f,0xfd,0x7d,0x07,0x00,0x00,0xb5,0xfa,0x6a,0x6f,0x3d,0x00,
 0x00,0x00,0xc0,0xff,0xff,0x5f,0x7d,0x7f,0xed,0xdf,0x3e,0xf1,0xff,0xea,0xff,
 0xb5,0x5f,0x80,0xda,0xff,0xff,0x1f,0xea,0x25,0x00,0xd8,0xfe,0x7e,0xd7,0x4f,
 0xe0,0x7e,0xfb,0x6f,0xd7,0x07,0x00,0x00,0xff,0xaf,0xff,0xfd,0x3f,0x00,0x00,
 0x00,0xc0,0xda,0xf6,0x77,0xaf,0xed,0xff,0x7f,0xbf,0x60,0xab,0x7f,0x7f,0xd0,
 0x2a,0x00,0x7f,0xb5,0xf6,0xc7,0x7e,0x03,0x00,0xf0,0xff,0xff,0xff,0x17,0xe0,
 0xff,0xff,0xff,0xff,0x0f,0x00,0x00,0xff,0xff,0xff,0xff,0x3f,0x00,0x00,0x00,
 0x00,0xff,0xff,0xdf,0xbd,0x7e,0xfb,0xff,0x57,0x80,0xff,0xed,0x1f,0xfd,0x8f,
 0x00,0xec,0xff,0xff,0x52,0xbf,0x01,0x00,0xe0,0xff,0xff,0xff,0x5f,0xc1,0xff,
 0xff,0xff,0xff,0xa7,0x00,0x00,0xfe,0xff,0xff,0xff,0x5f,0x05,0x00,0x00,0x00,
 0xfe,0xff,0xff,0x57,0xfc,0xff,0xff,0x3f,0x41,0xff,0xff,0xd7,0xee,0x13,0x80,
 0xfa,0xff,0xbf,0xfb,0x7b,0x04,0x00,0x00,0x80,0xea,0xff,0x57,0x01,0x40,0xed,
 0xff,0xff,0x5f,0x02,0x00,0x00,0xd4,0xff,0xff,0xbf,0x12,0x00,0x00,0x00,0xfa,
 0xff,0xff,0x9f,0xf0,0xff,0xff,0x0b,0x00,0xfd,0xff,0xff,0x7b,0x05,0x00,0xf8,
 0xff,0x7f,0xdd,0xaf,0x00,0x00,0x00,0x74,0xff,0xff,0xbf,0x04,0xd4,0xfe,0xff,
 0xff,0xb7,0x01,0x00,0x40,0xff,0xff,0xff,0xdb,0x0d,0x00,0x00,0x80,0xe8,0xff,
 0xff,0x05,0xd0,0xff,0xff,0x57,0x40,0xfe,0xff,0xbf,0xff,0x01,0x00,0xea,0xff,
 0xff,0xff,0x5b,0x00,0x00,0x00,0xe8,0xff,0xff,0xff,0x02,0xe8,0xff,0xff,0xff,
 0x7f,0x05,0x00,0x80,0xda,0xff,0xff,0xff,0x2b,0x00,0x00,0x00,0xf4,0xff,0xff,
 0x2a,0xc0,0xff,0xff,0x0a,0x00,0xf5,0xff,0xff,0x5f,0x08,0x00,0xd0,0xff,0xff,
 0xff,0x0e,0x01,0x00,0x00,0xf5,0xff,0xff,0xbf,0x02,0xa0,0xff,0xff,0xff,0xff,
 0x02,0x00,0x50,0xff,0xff,0xff,0xff,0x17,0x00,0x00,0x00,0xd2,0xff,0x7f,0x01,
 0xb0,0xff,0xbf,0x05,0x00,0xf4,0xff,0xff,0xaf,0x02,0x00,0x50,0xff,0xff,0xbf,
 0x03,0x00,0x00,0x00,0xd4,0xff,0xff,0xfd,0x02,0xd8,0xfb,0xff,0x7f,0x7f,0x01,
 0x00,0x40,0x7d,0xff,0xff,0xff,0x0b,0x00,0x00,0x00,0xe8,0xff,0x2f,0x05,0x44,
 0xff,0xef,0x10,0x00,0xa9,0xff,0xff,0x2a,0x00,0x00,0xc4,0xfe,0xff,0xff,0x10,
 0x00,0x00,0x00,0xa8,0xaa,0x56,0xaf,0x02,0xa4,0xae,0xda,0xd6,0x55,0x05,0x00,
 0x80,0xd6,0xaa,0xaa,0xaa,0x2a,0x00,0x00,0x00,0xa0,0xfe,0xab,0x00,0x90,0xfd,
 0x3b,0x02,0x00,0xd0,0xfe,0xbf,0x15,0x00,0x00,0x20,0xf5,0xff,0x15,0x05,0x00,
 0x00,0x00,0x52,0x55,0x55,0x51,0x01,0xa0,0x52,0x55,0x55,0x55,0x01,0x00,0x40,
 0x5a,0xab,0xaa,0xaa,0x0a,0x00,0x00,0x00,0x48,0xab,0x2a,0x00,0x40,0x56,0x8d,
 0x00,0x00,0x44,0x55,0xd5,0x42,0x00,0x00,0x40,0xad,0xad,0x56,0x00,0x00,0x00,
 0x00,0x40,0xaa,0x52,0x2a,0x00,0x48,0x4a,0x25,0x49,0x24,0x00,0x00,0x00,0x44,
 0x54,0x49,0x25,0x01,0x00,0x00,0x00,0x00,0x55,0x05,0x00,0x00,0xa9,0x22,0x00,
 0x00,0x90,0x6a,0x55,0x04,0x00,0x00,0x00,0x54,0xb5,0x0a,0x00,0x00,0x00,0x00,
 0x00,0x00,0x00,0x00,0x00,0x00,0x10,0x00,0x00,0x01,0x00,0x00,0x00,0x90,0x00,
 0x02,0x00,0x00,0x00,0x00,0x00,0x40,0xa8,0x10,0x00,0x00,0x54,0x0a,0x00,0x00,
 0x00,0x94,0x12,0x00,0x00,0x00,0x00,0x21,0x42,0x81,0x00,0x00,0x00,0x00,0x00,
 0x00,0x00,0x00,0x00,0x00,0x00,0x00,0x00,0x00,0x00,0x00,0x00,0x00,0x00,0x00,
 0x00,0x00,0x00,0x00,0x00,0x00,0x02,0x00,0x00,0x80,0x00,0x00,0x00,0x00,0x00,
 0x00,0x80,0x00,0x00,0x00,0x00,0x88,0x08,0x04,0x00,0x00,0x00,0x00,0x00,0x00,
 0x00,0x00,0x00,0x00,0x00,0x00,0x00,0x00,0x00,0x00,0x00,0x00,0x00,0x00,0x00,
 0x00,0x00,0x00,0x00,0x00,0x00,0x00,0x00,0x00,0x80,0x00,0x00,0x00,0x00,0x00,
 0x04,0x00,0x00,0x00,0x00,0x00,0x00,0x00,0x00,0x00,0x00,0x00,0x00,0x00,0x00,
 0x00,0x00,0x00,0x00,0x00,0x00,0x00,0x00,0x00,0x00,0x00,0x00,0x00,0x00,0x00,
 0x00,0x00,0x00,0x00,0x00,0x00,0x00,0x00,0x00,0x00,0x00,0x00,0x00,0x00,0x00,
 0x00,0x00,0x00,0x00,0x00,0x00,0x00,0x00,0x00,0x00,0x00,0x00,0x00,0x00,0x00,
 0x00,0x00,0x00,0x00,0x00,0x00,0x00,0x00,0x00,0x00,0x00,0x00,0x00,0x00,0x00,
 0x00,0x00,0x00,0x00,0x00,0x00,0x00,0x00,0x00,0x00,0x00,0x00,0x00,0x00,0x00,
 0x00,0x00,0x00,0x00,0x00,0x00,0x00,0x00,0x00};
