#define x-face-beta-logo_width 352
#define x-face-beta-logo_height 96
static char x-face-beta-logo_bits[] = {
 0x00,0x00,0x00,0x00,0x00,0x00,0x00,0x00,0x00,0x00,0x00,0x00,0x00,0x00,0x00,
 0x00,0x00,0x00,0x00,0x00,0x00,0x00,0x00,0x00,0x00,0x00,0x00,0x00,0x00,0x00,
 0x00,0x00,0x00,0x00,0x00,0x00,0x00,0x00,0x00,0x00,0x00,0x00,0x00,0x00,0x00,
 0x00,0x00,0x00,0x00,0x00,0x00,0x00,0x00,0x00,0x00,0x00,0x00,0x00,0x00,0x00,
 0x00,0x00,0x00,0x00,0x00,0x00,0x00,0x00,0x00,0x00,0x00,0x00,0x00,0x00,0x00,
 0x00,0x00,0x00,0x00,0x00,0x00,0x00,0x00,0x00,0x00,0x00,0x00,0x00,0x00,0x00,
 0x00,0x00,0x00,0x00,0x00,0x00,0x00,0x00,0x00,0x00,0x00,0x00,0x00,0x00,0x00,
 0x00,0x00,0x00,0x00,0x00,0x00,0x00,0x00,0x00,0x00,0x00,0x00,0x00,0x00,0x00,
 0x00,0x00,0x00,0x00,0x00,0x00,0x00,0x00,0x00,0x00,0x00,0x00,0x00,0x00,0x00,
 0x00,0x00,0x00,0x00,0x00,0x00,0x00,0x00,0x00,0x00,0x00,0x00,0x00,0x00,0x00,
 0x00,0x00,0x00,0x00,0x00,0x00,0x00,0x00,0x00,0x00,0x00,0x00,0x00,0x00,0x00,
 0x00,0x00,0x00,0x00,0x00,0x00,0x00,0x00,0x00,0x00,0x00,0x00,0x00,0xe0,0xff,
 0xff,0xff,0x1f,0x00,0xfe,0xff,0xff,0x07,0x00,0x00,0x00,0xff,0xff,0xff,0xff,
 0xff,0xff,0xff,0x01,0x00,0x00,0x00,0x00,0x00,0x00,0x00,0x00,0x00,0x00,0x00,
 0x00,0x00,0x00,0x00,0x00,0x00,0x00,0x00,0x00,0x00,0x00,0x00,0x70,0x6b,0x6b,
 0x6b,0x3b,0x00,0xdb,0xda,0xda,0x0e,0x00,0x00,0x80,0xb6,0xb6,0xb6,0xb6,0xb6,
 0xb6,0xb6,0x03,0x00,0x00,0x00,0x00,0x00,0x00,0x00,0x00,0x00,0x00,0x00,0x00,
 0x00,0x00,0x00,0x00,0x00,0x00,0x00,0x00,0x00,0x00,0x00,0xd0,0xdf,0xdf,0xdf,
 0x6f,0x00,0xf7,0xf7,0xf7,0x1b,0x00,0x00,0x80,0xff,0xfd,0xfd,0xfd,0xfd,0xfd,
 0xfb,0x07,0x00,0x00,0x00,0x00,0x00,0x00,0x00,0x00,0x00,0x00,0x00,0x00,0x00,
 0x00,0x00,0x00,0x00,0x00,0x00,0x00,0x00,0x00,0x00,0x70,0x7d,0x7d,0x7d,0xfd,
 0x00,0x5e,0x5f,0x5f,0x3f,0x00,0x00,0x80,0xd5,0xd7,0xd7,0xd7,0xaf,0x6f,0x5f,
 0x07,0x00,0x00,0x00,0x00,0x00,0x00,0x00,0x00,0x00,0x00,0x00,0x00,0x00,0x00,
 0x00,0x00,0x00,0x00,0x00,0x00,0x00,0x00,0x00,0xe0,0xef,0xef,0xef,0xf7,0x00,
 0xfa,0xfb,0xfb,0x3d,0x00,0x00,0x00,0xff,0xfe,0xfe,0x7e,0xfb,0xf6,0xf7,0x07,
 0x00,0x00,0x00,0x00,0x00,0x00,0x00,0x00,0x00,0x00,0x00,0x00,0x00,0x00,0x00,
 0x00,0x00,0x00,0x00,0x00,0x00,0x00,0x00,0xe0,0x7b,0x7b,0xfb,0xff,0x00,0xfe,
 0xde,0xfe,0x3f,0x00,0x00,0x00,0xbe,0xb7,0xb7,0xff,0xff,0x5f,0x7d,0x07,0x00,
 0x00,0x00,0x00,0x00,0x00,0x00,0x00,0x00,0x00,0x00,0x00,0x00,0x00,0x00,0x00,
 0x00,0x00,0x00,0x00,0x00,0x00,0x00,0x80,0xdf,0xdf,0xdf,0x7f,0x55,0xb8,0xf7,
 0xff,0x5f,0x05,0x00,0x00,0xf8,0xfd,0xfd,0xff,0xff,0xff,0xd7,0x57,0x01,0x00,
 0x00,0x00,0x00,0x00,0x00,0x00,0x00,0x00,0x00,0x00,0x00,0x00,0x00,0x00,0x00,
 0x00,0x00,0x00,0x00,0x00,0x00,0x00,0x70,0x75,0xf5,0x55,0x15,0xc0,0xbd,0xfe,
 0xaa,0x12,0x00,0x00,0x80,0x57,0x57,0x5f,0x55,0xf9,0xfe,0xaf,0x04,0x00,0x00,
 0x00,0x00,0x00,0x00,0x00,0x00,0x00,0x00,0x00,0x00,0x00,0x00,0x00,0x00,0x00,
 0x00,0x00,0x00,0x00,0x00,0x00,0xe0,0xff,0xff,0xfb,0xaf,0x60,0xef,0xaf,0xfd,
 0x0d,0x00,0x00,0x80,0xfe,0xff,0xb7,0xbb,0xdf,0xb7,0xff,0x02,0x00,0x00,0x00,
 0x00,0x00,0x00,0x00,0x00,0x00,0x00,0x00,0x00,0x00,0x00,0x00,0x00,0x00,0x00,
 0x00,0x00,0x00,0x00,0x00,0x60,0x5b,0xdb,0xef,0x5e,0xc0,0xfb,0xff,0xf7,0x2b,
 0x00,0x00,0x80,0xdb,0xda,0xff,0xff,0x7e,0xfd,0x77,0x05,0x00,0x00,0x00,0x00,
 0x00,0x00,0x00,0x00,0x00,0x00,0x00,0x00,0x01,0x00,0x00,0x00,0x00,0x00,0x00,
 0x00,0x00,0x00,0x00,0xc4,0xff,0xff,0xff,0x2f,0xf0,0xfe,0xff,0xdf,0x17,0x00,
 0x00,0x00,0xff,0xff,0xff,0xff,0x77,0xaf,0xff,0x05,0x00,0x00,0x00,0x00,0x00,
 0x00,0x00,0x00,0x00,0x00,0x00,0x40,0x01,0x00,0x00,0x00,0x00,0x00,0x00,0x00,
 0x00,0x00,0x00,0x90,0xd5,0xaa,0xff,0x5b,0xb8,0xf7,0xff,0xff,0x0b,0x00,0x00,
 0x80,0xb5,0xd6,0xff,0xf7,0x7f,0xfa,0xff,0x05,0x00,0x00,0x00,0x00,0x00,0x00,
 0x00,0x00,0x00,0x00,0x54,0xa0,0x06,0x00,0x00,0x00,0x00,0x00,0x00,0x00,0x00,
 0x00,0x00,0x88,0xff,0xff,0xff,0x2f,0xfc,0xfd,0xff,0xbf,0x2a,0x00,0x00,0xc0,
 0xff,0xff,0xff,0x5f,0x2d,0xde,0xff,0x05,0x00,0x00,0x00,0x00,0x00,0x00,0x00,
 0x00,0x08,0x00,0xaa,0x40,0x05,0x00,0x00,0x00,0x00,0x00,0x00,0x00,0x00,0x00,
 0x00,0x92,0xb6,0xb6,0xbf,0x04,0x68,0xff,0xff,0xdf,0x0a,0x00,0x00,0xc0,0xad,
 0xb5,0xff,0x55,0x55,0xf6,0x7f,0x03,0x00,0x00,0x00,0x00,0x00,0x00,0x00,0x80,
 0x52,0x00,0xa8,0x80,0x06,0x00,0x00,0x00,0x00,0x00,0x00,0x00,0x00,0x00,0x00,
 0x80,0xff,0xff,0xff,0x0a,0xfe,0xff,0xff,0x45,0x02,0x00,0x00,0x40,0xff,0xff,
 0xff,0xab,0x12,0xdc,0xff,0x05,0x00,0x00,0x00,0x00,0x00,0x00,0x00,0x80,0x2a,
 0x01,0x54,0x41,0x05,0x00,0x00,0x00,0x00,0x00,0x00,0x00,0x00,0x00,0x00,0x08,
 0x6b,0x5b,0x7f,0x01,0xae,0xdf,0xff,0x2b,0x00,0x00,0x00,0xc0,0x6b,0xed,0x7f,
 0x05,0x00,0xfe,0xff,0x02,0x00,0x00,0x00,0x00,0x00,0x00,0x00,0x40,0x55,0x01,
 0x54,0x81,0x06,0x00,0x00,0x00,0x00,0x00,0x00,0x00,0x00,0x00,0x00,0x00,0xfe,
 0xfd,0xbf,0x80,0xfb,0xef,0xbf,0x04,0x00,0x00,0x00,0xc0,0xfe,0xff,0xff,0x01,
 0x00,0xea,0xff,0x02,0x00,0x00,0x00,0x00,0x00,0x00,0x0a,0x50,0xff,0x06,0x54,
 0x41,0x05,0x00,0x00,0x00,0x00,0x00,0x00,0x00,0x00,0x00,0x00,0x00,0xae,0x6f,
 0xfd,0xc2,0xef,0xf3,0xff,0x02,0x00,0x00,0x00,0xe0,0x5b,0xeb,0x7f,0x02,0x00,
 0xfe,0xff,0x02,0x00,0x00,0x00,0x00,0x80,0x00,0x14,0x50,0x83,0x02,0xab,0x86,
 0x06,0x00,0x00,0x00,0x00,0x00,0x00,0x00,0x00,0x00,0x00,0x00,0x7a,0xfb,0xbf,
 0xa0,0xfd,0xfb,0x2f,0x00,0x00,0x00,0x00,0x60,0xff,0xff,0xbf,0x01,0x00,0xda,
 0xbf,0x01,0x00,0x00,0x00,0x00,0x55,0x02,0x1a,0xd0,0x81,0x0a,0xaa,0x42,0x05,
 0x00,0x00,0x00,0x00,0x00,0x00,0x00,0x00,0x00,0x00,0x00,0xee,0xdf,0xfe,0xe0,
 0xff,0xf4,0x9f,0x00,0x00,0x00,0x00,0xc0,0xd6,0xf6,0xff,0x00,0x00,0xfe,0xfe,
 0x02,0x00,0x00,0x00,0x80,0xaa,0x02,0x08,0x58,0x00,0x15,0x54,0x0d,0x05,0x00,
 0x00,0x00,0x00,0x00,0x00,0x00,0x00,0x00,0x00,0x00,0xbc,0xed,0xfb,0xf0,0x7a,
 0xfe,0x25,0x00,0x00,0x00,0x00,0xe0,0xff,0xff,0x7f,0x02,0x00,0xec,0x7e,0x01,
 0x00,0x00,0x05,0x00,0xd5,0x0a,0x34,0xc8,0x01,0x1a,0x54,0x8a,0x0a,0x00,0x00,
 0x00,0x00,0x00,0x00,0x00,0x00,0x00,0x00,0x00,0xf4,0x7b,0x7f,0xb0,0x7f,0xfd,
 0x0b,0x00,0x00,0x00,0x00,0x70,0x5b,0xf5,0xbf,0x00,0x00,0xfc,0xfd,0x00,0x00,
 0x80,0x2a,0x40,0x7d,0x15,0x28,0xe8,0x00,0x14,0xd4,0x0b,0x0d,0x00,0x00,0x00,
 0x00,0x00,0x00,0x00,0x00,0x00,0x00,0x00,0xd8,0xde,0x37,0xec,0x1f,0xff,0x05,
 0x00,0x00,0x00,0x00,0xd0,0xff,0xff,0x7f,0x01,0x00,0xf8,0x5e,0x01,0x01,0x55,
 0x2a,0x58,0x1d,0x15,0x34,0xa8,0x00,0xfa,0x6c,0x54,0x05,0x00,0x00,0xe0,0xff,
 0x00,0x00,0x00,0x00,0x00,0x00,0x00,0xf8,0x77,0x3d,0x7e,0xcf,0xff,0x22,0x00,
 0x00,0x00,0x00,0xf0,0x6a,0xfb,0x5f,0x00,0x00,0x00,0x1e,0xac,0x04,0x55,0xd5,
 0x5f,0x7f,0x2a,0x28,0xd0,0x80,0xbd,0xa9,0x95,0x1a,0x00,0x00,0x7f,0xdb,0x0f,
 0x00,0x00,0x00,0x00,0x00,0x00,0x58,0xfd,0x3f,0xdb,0x57,0x5f,0x01,0x00,0x00,
 0x00,0x00,0xb0,0xff,0xff,0xbf,0x00,0x00,0x00,0x8e,0x52,0xfb,0xea,0x55,0x87,
 0xee,0x3d,0x2a,0xd4,0x70,0xea,0xa9,0x15,0x15,0x00,0xc0,0xdf,0x7e,0x3b,0x00,
 0x00,0x00,0x00,0x00,0x00,0xf0,0x5f,0xab,0xfe,0xe3,0x7f,0x04,0x00,0x00,0x00,
 0x00,0xf0,0xad,0xf5,0x5f,0x00,0x00,0x00,0xad,0x5a,0x6d,0xfd,0x57,0x4d,0xfb,
 0x03,0x54,0x50,0xfe,0x7a,0xab,0x6b,0x1a,0x00,0xb0,0xf5,0xeb,0x6f,0x00,0x00,
 0x00,0x00,0x00,0x00,0xb0,0xf5,0xff,0xef,0xd7,0x2f,0x00,0x00,0x00,0x00,0x00,
 0x58,0xff,0xff,0xbf,0x00,0x38,0x80,0xa5,0xea,0x7e,0x7a,0xa7,0x5f,0xad,0x01,
 0x54,0xa8,0xaf,0xd5,0xd3,0x13,0x15,0x00,0xfc,0x7f,0xbf,0xfd,0x00,0x00,0x00,
 0x00,0x00,0x00,0xe0,0xdf,0xba,0xfa,0xf1,0x9b,0x00,0x00,0x00,0x00,0x00,0xf8,
 0x6b,0xfd,0x5f,0x00,0x7a,0x40,0x4e,0xfb,0x5f,0xfa,0x57,0x9b,0xf2,0x01,0xa8,
 0xa8,0xfb,0xf5,0xa9,0xaa,0x1a,0x00,0x6f,0xed,0xf7,0xaf,0x01,0x00,0x00,0x00,
 0x00,0x00,0x60,0xfb,0xef,0xff,0xfc,0x27,0x00,0x78,0x00,0x00,0x00,0xd8,0xfe,
 0xff,0x5f,0x00,0xeb,0x40,0xa7,0xea,0x77,0xfd,0xa7,0xbf,0x0a,0x54,0xd4,0xd0,
 0x6e,0xe9,0xd5,0x57,0x15,0x80,0xfb,0xff,0xbf,0xfa,0x03,0x00,0x00,0x00,0x00,
 0x00,0xc0,0xaf,0x7d,0x7b,0xf5,0x0b,0x00,0xfe,0x03,0x00,0x00,0xf0,0x5b,0xfb,
 0x2f,0x00,0xf5,0x80,0x4a,0x7b,0x5d,0x75,0x51,0xb7,0xaa,0x2a,0xa8,0xa0,0xff,
 0x35,0xd4,0xaf,0x1a,0xe0,0x5e,0xfb,0xe2,0x6f,0x17,0x00,0x00,0x00,0x00,0x00,
 0x40,0xfd,0xdf,0x3f,0xfe,0x05,0x40,0xd7,0x0e,0x00,0x00,0x78,0xf1,0xff,0x5f,
 0x00,0xfa,0x60,0x43,0xdd,0x7f,0xb4,0xa8,0xdd,0xaa,0x4a,0xd5,0xd4,0xb5,0xa9,
 0xd2,0x4d,0x15,0xb0,0xf7,0x7f,0xa5,0xfd,0x4f,0x00,0x00,0x00,0x00,0x00,0xc0,
 0x6f,0x75,0xbf,0xbd,0x12,0xc0,0xff,0x1b,0x00,0x00,0x5c,0xa8,0xfd,0x2f,0x00,
 0xf5,0xa0,0x46,0xf5,0x56,0x0b,0xa4,0xff,0xab,0xaa,0x50,0x56,0xff,0x75,0x58,
 0x6f,0x35,0xe8,0x7d,0x5f,0xe7,0xb7,0xae,0x00,0x00,0x00,0x00,0x00,0x00,0xfb,
 0xff,0xdf,0xff,0x01,0x40,0x6d,0x3f,0x00,0x00,0x74,0xea,0xff,0x37,0x80,0xea,
 0x42,0xa3,0xbe,0xff,0xaa,0xda,0x6b,0x7f,0x55,0xa8,0xa5,0xed,0xd4,0x50,0x9b,
 0x3a,0x7c,0xd7,0xef,0xc3,0xfe,0x3f,0x01,0x00,0x00,0x00,0x00,0x80,0xaf,0xad,
 0xff,0x7e,0x04,0xe0,0xfb,0x6d,0x80,0xa2,0x7c,0xd5,0xfe,0x1f,0xc0,0x55,0xa8,
 0x42,0x01,0xec,0xaa,0xaa,0xfe,0xff,0xab,0xac,0xa7,0xfe,0xe8,0x50,0x7f,0x35,
 0xd8,0xff,0xff,0xe7,0xab,0xfd,0x02,0x00,0x00,0x00,0x00,0x80,0xfd,0xff,0xfe,
 0x5f,0x01,0x70,0x5f,0xff,0xa0,0xaa,0x1d,0xaa,0x0f,0x00,0x60,0x6b,0x45,0x63,
 0xa5,0xf8,0x54,0x55,0x5b,0xfa,0xab,0xaa,0xaf,0x7a,0xf6,0xa9,0xab,0x1a,0xfe,
 0xda,0xf7,0x63,0xff,0xbf,0x04,0x00,0x00,0x00,0x00,0x00,0xb7,0xda,0xff,0x2f,
 0x00,0xd0,0x1b,0xe0,0x90,0xaa,0xb6,0xaa,0x0e,0x00,0xd0,0x53,0xac,0x42,0x55,
 0xfb,0x6a,0xad,0x3f,0xfc,0xab,0xd2,0xba,0x7a,0xe9,0x50,0x7f,0x1f,0xaf,0xff,
 0xff,0xc3,0x6d,0xfd,0x03,0x00,0x00,0x00,0x00,0x00,0xfd,0x7f,0xff,0x9b,0x00,
 0x70,0x40,0x29,0xac,0xaa,0x3e,0xd5,0xf7,0xfe,0x7f,0x6b,0xa7,0x43,0x55,0xfd,
 0xea,0x47,0x96,0xfa,0x53,0xab,0x9f,0x02,0xf6,0x5b,0xf7,0x8f,0xfb,0xed,0xff,
 0x61,0xff,0xff,0x0a,0x00,0x00,0x00,0x00,0x00,0x6e,0xeb,0xfd,0x27,0x00,0x38,
 0xaa,0x56,0xab,0xfe,0x6f,0x55,0xbd,0xdb,0xf7,0xab,0x6d,0xa1,0xaa,0xfe,0xf4,
 0xa1,0xbe,0xfa,0x57,0xd3,0x6d,0x55,0x79,0xe9,0xfd,0x87,0x6e,0xff,0xff,0xf1,
 0xb7,0xfd,0x0b,0x00,0x00,0x00,0x00,0x00,0xfa,0xbf,0xff,0x0d,0x00,0x28,0x55,
 0xe9,0xff,0x05,0x3a,0xad,0xef,0x7e,0x5d,0x55,0x87,0xa9,0xfa,0xff,0xea,0x50,
 0x2b,0xfd,0xd3,0xa1,0x7f,0x55,0xfd,0xf1,0xff,0xc3,0xff,0xf5,0xff,0xb0,0xed,
 0xff,0x0d,0x00,0x00,0x00,0x00,0x00,0xae,0xf6,0xfd,0x03,0xaa,0x70,0xb5,0xfe,
 0x2f,0x06,0xaf,0xae,0xfa,0xeb,0xff,0xa7,0x67,0x49,0xf5,0xff,0xf5,0x50,0xfd,
 0xfa,0xa9,0xb0,0xeb,0x55,0x5f,0xe0,0xff,0x83,0xb5,0xff,0x7f,0x78,0xbf,0xfe,
 0x0b,0x00,0x00,0x00,0x00,0x00,0xfc,0x5f,0xf7,0x65,0x55,0x69,0x7d,0xff,0x3f,
 0x04,0x3d,0xad,0x5e,0x7f,0xeb,0xa6,0xae,0xbd,0xda,0xfe,0x69,0x98,0x5e,0x6a,
 0xd4,0xa0,0xbe,0xaf,0x7f,0xc1,0xff,0xe3,0xff,0xfb,0x7f,0xe8,0xf7,0xff,0x17,
 0x00,0x00,0x00,0x00,0x00,0xdf,0xfa,0xff,0xd3,0xaa,0x32,0xf5,0xdb,0x2f,0x07,
 0x97,0x5a,0xfd,0xff,0xbf,0x5f,0x4f,0x4f,0xf5,0xff,0xb5,0x58,0x7d,0x2a,0xea,
 0xd8,0xf7,0xff,0x1f,0x00,0xfc,0x61,0xad,0xfe,0x3f,0xbc,0x7d,0xff,0x0f,0x00,
 0x00,0x00,0x00,0x80,0xf6,0xdf,0x7a,0xa5,0x7e,0x6d,0xda,0xff,0xbf,0x02,0x9f,
 0x9a,0xfe,0xff,0xf7,0xbd,0xa6,0x9b,0x7a,0xff,0x29,0x48,0xed,0xaa,0x6a,0xf4,
 0x5f,0xff,0x57,0x00,0xfd,0xf1,0xff,0xff,0x1f,0xec,0xd7,0xff,0x17,0x00,0x00,
 0x00,0x00,0x80,0xbf,0xf6,0xff,0xd3,0x80,0x2a,0xea,0xf6,0x1f,0x8d,0x6d,0x7d,
 0xfd,0xaf,0x7a,0x5f,0xd1,0x9f,0xda,0xff,0x6b,0xbc,0xfa,0x55,0x3d,0xfc,0xfa,
 0xff,0x2f,0x00,0xf4,0x50,0x6b,0xfb,0x07,0xbf,0xfe,0xff,0x0b,0x00,0x00,0x00,
 0x00,0x40,0xeb,0xbf,0xf6,0xa5,0x00,0x4a,0xb5,0xff,0xff,0x8a,0xbf,0x2e,0xfd,
 0x7b,0xd7,0xbd,0xaa,0x5a,0x75,0xe0,0x29,0xf4,0xaa,0x57,0x1d,0xae,0xdf,0xff,
 0x17,0x80,0xfa,0xf8,0xff,0xff,0x83,0xf6,0xb7,0xff,0x17,0x00,0x00,0x00,0x00,
 0xe0,0x7f,0xeb,0xff,0x57,0x00,0x55,0xea,0xf4,0x3f,0x8d,0x0a,0xbd,0xfa,0xef,
 0xe7,0x1f,0xd5,0x9f,0x0a,0xea,0xeb,0x5e,0xfa,0xff,0x17,0xfa,0xf6,0xff,0x17,
 0x00,0x68,0x68,0xad,0xfe,0xc0,0xbf,0xfd,0xff,0x0b,0x00,0x00,0x00,0x00,0xf0,
 0xda,0xbf,0xd5,0x53,0x01,0x9a,0x35,0xe2,0x7f,0x8a,0x4f,0x05,0xfd,0xff,0xa7,
 0xbe,0xaa,0xed,0xaa,0xaa,0x53,0xfa,0xbf,0xfe,0x1f,0xdf,0xbf,0xff,0x0b,0x00,
 0x54,0xf8,0xff,0x7f,0xc0,0xea,0xf7,0xff,0x0f,0x00,0x00,0x00,0x00,0xb8,0xff,
 0xfa,0xff,0xaf,0x02,0x15,0x0a,0xda,0x5f,0x8d,0xbb,0x52,0xf5,0xff,0xe6,0x3f,
 0xd5,0x7f,0x55,0xd5,0x6b,0x5f,0xff,0xff,0x0b,0x77,0xeb,0xff,0x27,0x00,0x51,
 0x6c,0xdb,0x1e,0xf8,0xbf,0xfe,0xff,0x02,0x00,0x00,0x00,0x00,0xe8,0xbe,0x6f,
 0xed,0x47,0x83,0x1a,0xd4,0xea,0x3f,0xcd,0x8e,0x4a,0xf5,0xaf,0xc3,0x9e,0xaa,
 0x56,0xaa,0xaa,0x76,0xf7,0xad,0xff,0x0f,0xdd,0xff,0xff,0x05,0x00,0x00,0xfc,
 0xfd,0x0f,0xdc,0xf6,0xff,0xff,0x17,0x00,0x00,0x00,0x00,0xfc,0xff,0xfb,0xbf,
 0xa7,0x80,0x1a,0x54,0xd5,0x7f,0xc5,0x4b,0xb5,0xea,0xaa,0xe4,0x9f,0xea,0xff,
 0x55,0xfd,0x83,0x7d,0xff,0xff,0x0b,0xff,0xda,0xff,0x05,0x00,0x24,0xac,0x6f,
 0x0f,0xf7,0xdf,0xff,0xff,0x01,0x00,0x00,0x00,0x00,0x56,0xcf,0xde,0xf6,0xaf,
 0x2a,0x0d,0xa8,0xfe,0x3f,0x4a,0x4f,0x55,0xd5,0x93,0x62,0x9f,0xea,0x6b,0xef,
 0xff,0x81,0xd7,0x6b,0xff,0x8f,0xb6,0xff,0xff,0x05,0x00,0x00,0x7e,0xdb,0xff,
 0x5f,0xfb,0xff,0x7f,0x05,0x00,0x00,0x00,0x00,0xfe,0x87,0xb7,0xbf,0xbf,0xaa,
 0x0a,0xd4,0xff,0x1f,0xcd,0xad,0xfa,0xd5,0x04,0xd0,0x7f,0xf5,0xfe,0xff,0xff,
 0xc2,0xfe,0xfe,0xff,0x85,0xff,0xd6,0xff,0x02,0x00,0x00,0xea,0xff,0xdd,0xfa,
 0xff,0xff,0xff,0x02,0x00,0x00,0x00,0x80,0xdb,0x97,0xfd,0xea,0x9f,0xaa,0x0a,
 0xea,0xff,0x57,0xaa,0x4f,0xff,0x68,0x01,0xc0,0x77,0xb5,0xb7,0xfa,0x7f,0x81,
 0xb7,0xb7,0xff,0x87,0xd5,0xff,0xff,0x02,0x00,0x00,0xbe,0x6d,0xf7,0xbf,0xff,
 0xff,0x5f,0x01,0x00,0x00,0x00,0xc0,0xff,0x2b,0xdf,0xbf,0x5e,0xb5,0x0a,0xd4,
 0xff,0x17,0xea,0xa2,0xfe,0x55,0x01,0x80,0xf3,0xea,0xfd,0xff,0xbf,0xc0,0xfd,
 0xfd,0xff,0x45,0x7f,0xed,0xff,0x02,0x00,0x00,0xfa,0xbe,0xbf,0xf6,0xab,0xff,
 0x7f,0x00,0x00,0x00,0x00,0x60,0xf5,0x35,0x75,0xf7,0x9f,0xbe,0x2a,0x2a,0x7d,
 0x15,0xf4,0xa3,0xf6,0xab,0x01,0x00,0xe8,0x7f,0xaf,0xfd,0xdf,0x60,0x6f,0xd7,
 0xff,0xc7,0xed,0xff,0x7f,0x01,0x00,0x00,0xde,0xf7,0xed,0x7f,0xf5,0xff,0x17,
 0x01,0x00,0x00,0x00,0xd0,0xff,0x78,0xff,0xdd,0x5e,0x05,0x54,0xd4,0xd5,0x02,
 0x5a,0x53,0xfd,0xd7,0x00,0x00,0xe8,0xf1,0xfb,0xff,0x7f,0xe8,0xfb,0xff,0xff,
 0x82,0x7f,0xeb,0xff,0x02,0x00,0x00,0xf7,0xdd,0xfe,0xbf,0xfa,0xfd,0x57,0x00,
 0x00,0x00,0x00,0x78,0x7b,0x7e,0xad,0xff,0xbf,0x06,0x6a,0xe8,0x54,0x25,0xea,
 0xab,0xf6,0xaf,0x01,0x00,0xe0,0xd0,0x6e,0xfd,0x3f,0x70,0xaf,0xda,0xff,0xc5,
 0xd6,0xff,0x7f,0x01,0x00,0x00,0x5d,0xf7,0xff,0x8b,0xfe,0x7c,0x09,0x00,0x00,
 0x00,0x00,0xe8,0x7f,0x7b,0xfe,0x6a,0x1d,0x05,0x54,0x54,0x02,0x00,0xea,0x56,
 0xfd,0xff,0x00,0x00,0xb4,0xf8,0xff,0xff,0x5f,0xe8,0xfd,0xff,0x9f,0xc3,0x7f,
 0xed,0xbf,0x00,0x40,0x00,0xff,0xbf,0xff,0xef,0xff,0xd8,0x02,0x00,0x00,0x00,
 0x00,0xfc,0xbe,0x7e,0xda,0xff,0x9f,0x06,0x68,0x50,0xa0,0x00,0xb5,0x5f,0xff,
 0x7f,0x01,0x00,0xc0,0x68,0xb5,0xfd,0x1f,0xf8,0xb7,0xed,0x0f,0x42,0xed,0xff,
 0x7f,0x01,0xc0,0x01,0x6b,0xed,0xff,0xbf,0x7e,0x5c,0x11,0x00,0x00,0x00,0x00,
 0xae,0x9f,0xff,0xfc,0xad,0x5d,0x05,0x54,0xa8,0x56,0x01,0xea,0xb5,0xff,0x5f,
 0x00,0x00,0x50,0xf8,0xff,0xff,0x1f,0xec,0xfe,0xfb,0x0f,0xc1,0x7f,0xeb,0xdf,
 0x00,0x60,0x03,0xfe,0xbf,0xff,0xf7,0x37,0x34,0x00,0x00,0x00,0x00,0x00,0xfa,
 0xcf,0xbf,0x54,0xff,0x5f,0x05,0x68,0x54,0x55,0x03,0x7c,0xff,0xfb,0x7f,0x00,
 0x00,0x20,0xa8,0xad,0xfe,0x0f,0xfe,0x5b,0xef,0x87,0x87,0xd5,0xff,0x7f,0x01,
 0xc0,0x07,0xaf,0xf5,0xff,0xff,0x1f,0xfc,0x00,0x00,0x00,0x00,0x80,0x6f,0xb7,
 0xff,0xf8,0xd7,0x5a,0x15,0x54,0x54,0x55,0x03,0xfc,0xdb,0xff,0x9f,0x00,0x00,
 0x40,0xfc,0xff,0xff,0x87,0x7e,0xff,0xfd,0xc7,0xc7,0x7f,0xed,0xbf,0x00,0x70,
 0x0f,0xfb,0xbf,0xff,0xff,0x0a,0xde,0x00,0x00,0x00,0x00,0xc0,0xff,0xeb,0x2f,
 0x68,0xfd,0x7f,0x55,0x7b,0xa8,0xff,0x03,0xd8,0x7e,0xfd,0x5f,0x00,0x00,0x00,
 0xb4,0xd6,0xfe,0x07,0xfb,0xd5,0xf7,0x83,0x8e,0xed,0xff,0x5f,0x00,0xf8,0x07,
 0x6e,0xed,0xff,0xaf,0x05,0xf7,0x00,0x00,0x00,0x00,0xe0,0xea,0xf7,0xaf,0xf8,
 0xb7,0x36,0x55,0x35,0xf0,0x02,0x00,0xf0,0xeb,0xff,0x37,0x00,0x00,0x00,0xfc,
 0xff,0xff,0x83,0xff,0xff,0xfe,0xe1,0xcf,0x7f,0xeb,0xbf,0x00,0xb0,0x07,0xfa,
 0x7f,0xff,0xb5,0x82,0xfd,0x08,0x00,0x00,0x00,0xb0,0xff,0xf9,0x1f,0xd0,0xfe,
 0x3f,0x55,0x1d,0x00,0x00,0x00,0x58,0xbf,0xfd,0x5f,0x00,0x00,0x00,0xd8,0xda,
 0xfe,0xc1,0xfd,0xb6,0xf7,0xf0,0x8f,0xda,0xff,0xbf,0x00,0xfc,0x43,0xae,0xd5,
 0xff,0x4b,0xc0,0x7f,0x22,0x00,0x00,0x00,0xe8,0xf6,0xf6,0x27,0xf0,0xad,0xf5,
 0xaa,0x0f,0x00,0x00,0x00,0xf8,0xed,0xff,0x2f,0x00,0x00,0x00,0xfc,0xff,0x7f,
 0x60,0x9f,0xff,0x7d,0x58,0x87,0x7f,0xad,0x7f,0x00,0xee,0x2b,0xfe,0x7f,0xff,
 0x06,0x60,0x3d,0x14,0x00,0x00,0x00,0xbc,0xff,0xfe,0x0b,0xa0,0xff,0xff,0xff,
 0x01,0x00,0x00,0x00,0xbc,0xbf,0xfe,0x37,0x00,0x00,0x00,0x54,0xab,0x3e,0xf0,
 0xcf,0x55,0x7f,0xf4,0x87,0xeb,0xff,0xbf,0x00,0xfb,0xa1,0x6c,0xed,0x7f,0x13,
 0xd0,0x3f,0xa9,0x00,0x00,0x00,0xf6,0x7b,0x7f,0x05,0xe0,0xb6,0xd6,0x0f,0x00,
 0x00,0x00,0x00,0xec,0xf6,0xff,0x1f,0x00,0x00,0x00,0xfc,0xff,0x0f,0xb8,0x67,
 0xff,0x3b,0xfe,0x83,0x7e,0xdb,0xbf,0x00,0xef,0xd0,0xfc,0xbf,0xfd,0x01,0x78,
 0x1f,0x2d,0x00,0x00,0x00,0xdd,0x7e,0xff,0x13,0xe0,0xfd,0xff,0x2f,0x00,0x00,
 0x00,0x00,0xf8,0xdf,0xfe,0x4f,0x00,0x00,0x00,0xd8,0xda,0x0a,0xec,0xe3,0xdd,
 0x3e,0xed,0x21,0xdb,0xfd,0x5f,0xc0,0xfd,0xec,0xd4,0xf6,0xff,0x02,0xec,0x8f,
 0x56,0x00,0x00,0x80,0xf7,0x9f,0xff,0x00,0xa0,0xaf,0xb5,0x17,0x00,0x00,0x00,
 0x00,0xae,0xfa,0xff,0x17,0x00,0x00,0x00,0xf0,0xff,0xff,0xff,0xa3,0xf7,0xd7,
 0xff,0x51,0xff,0x57,0x03,0xe0,0x7f,0x74,0xf9,0xbf,0x0a,0x00,0xbe,0x47,0x5f,
 0x00,0x00,0xc0,0xbe,0x1e,0xbf,0x02,0x60,0xfb,0xff,0x01,0x00,0x00,0x00,0x00,
 0xff,0xaf,0x0e,0x18,0x00,0x00,0x00,0xb8,0xad,0xad,0xf7,0xe1,0x5e,0x7d,0xf5,
 0x54,0xaa,0xfe,0x05,0xf8,0x3e,0xda,0xb9,0xea,0x1f,0xa0,0xf7,0xa3,0x5d,0x00,
 0x00,0xf0,0xef,0x0f,0xde,0x00,0xe0,0x6f,0xad,0x02,0x00,0x00,0x00,0x80,0xb6,
 0xfd,0x0f,0x00,0x00,0x00,0x00,0xe0,0x7f,0xff,0xfd,0xc0,0xfb,0xef,0x7f,0xb0,
 0xfe,0xb7,0xff,0xaf,0x1f,0x7d,0xe1,0xbf,0xed,0xff,0xfd,0x53,0x2f,0x00,0xf0,
 0xbf,0xba,0xfd,0x7e,0xe0,0xbf,0xfd,0xff,0xff,0x00,0x00,0x00,0xff,0xff,0x77,
 0xfb,0x27,0x00,0x00,0x00,0xb0,0xea,0x6b,0x7f,0x48,0xbf,0xbd,0x7d,0xed,0xb6,
 0xfd,0xd6,0xfe,0x0f,0xb5,0x70,0xf7,0xbf,0x56,0xff,0xe1,0x2b,0x00,0xb8,0xed,
 0xff,0x6f,0x1f,0x71,0xfb,0xaf,0xb5,0xed,0x03,0x00,0x80,0xb6,0xd5,0xde,0xaf,
 0x1e,0x00,0x00,0x00,0xf0,0xff,0xfe,0x3f,0xd5,0xeb,0xf7,0x3f,0x78,0xfd,0xdf,
 0xff,0xdb,0xa7,0xfe,0xc2,0xdd,0xf6,0xff,0x7b,0xb4,0x17,0x00,0xe8,0xfb,0xd6,
 0xfa,0x4f,0xd0,0xaf,0xfa,0xff,0xbf,0x07,0x00,0x80,0xff,0xff,0x7b,0xfd,0x3d,
 0x00,0x00,0x00,0x60,0xb7,0xaf,0x0f,0xda,0xbe,0x7d,0x7f,0xb7,0x58,0xf5,0xda,
 0xfe,0x43,0x2f,0xc0,0x7f,0xdf,0x6a,0x3f,0xfa,0x0a,0x00,0x78,0xaf,0xff,0xaf,
 0x1e,0x70,0xfd,0xbf,0x56,0xf5,0x07,0x00,0x80,0x55,0x5b,0xef,0xb7,0x3f,0x00,
 0x00,0x00,0xc0,0xfd,0xfa,0xbf,0xbd,0xf7,0xd7,0x5f,0x7d,0xf1,0xbf,0xff,0xfb,
 0xa9,0xb7,0x80,0xea,0xf5,0xff,0x1f,0xea,0x25,0x00,0xd8,0xfd,0xb5,0xfd,0x17,
 0xe0,0x6f,0xeb,0xff,0x5f,0x07,0x00,0x00,0xff,0xff,0xfd,0xfe,0x3b,0x00,0x00,
 0x00,0xc0,0xd7,0xff,0xdf,0xd6,0xbd,0xfe,0xff,0xaf,0xe0,0xed,0x56,0x7f,0xe8,
 0x1b,0x00,0xbf,0xbf,0xf6,0xc7,0x7e,0x03,0x00,0xf0,0xff,0xff,0xff,0x4f,0xe0,
 0xff,0xff,0xff,0xff,0x0f,0x00,0x00,0xff,0xff,0xff,0xff,0x3f,0x00,0x00,0x00,
 0x80,0x7e,0xff,0xbf,0x7f,0xee,0xff,0xff,0x5f,0x80,0xbf,0xff,0x9f,0xb6,0x4d,
 0x00,0xf5,0xed,0xff,0x52,0xbf,0x01,0x00,0xe0,0xff,0xff,0xff,0xaf,0xc0,0xff,
 0xff,0xff,0xff,0xa7,0x00,0x00,0xfe,0xff,0xff,0xff,0x5f,0x05,0x00,0x00,0x00,
 0xff,0xff,0xff,0x17,0xfe,0xff,0xbf,0x37,0x00,0xff,0xff,0x57,0xfd,0x07,0x00,
 0xfc,0xff,0xbf,0xfb,0x7b,0x04,0x00,0x00,0x80,0xf6,0xff,0x5f,0x02,0x40,0xfd,
 0xff,0xff,0x5f,0x02,0x00,0x00,0xa4,0xff,0xff,0xbf,0x12,0x00,0x00,0x00,0xfa,
 0xff,0xff,0xaf,0xf0,0xff,0xff,0x9f,0x40,0xfd,0xff,0xff,0xff,0x11,0x00,0xf4,
 0xff,0x7f,0xdd,0xaf,0x00,0x00,0x00,0xfa,0xfe,0xff,0x77,0x01,0xb4,0xf7,0xff,
 0xff,0xb7,0x01,0x00,0x40,0xfb,0xff,0xff,0xdf,0x0d,0x00,0x00,0x00,0xf4,0xff,
 0xff,0x15,0xa8,0xff,0xff,0x05,0x00,0xfe,0xff,0xbf,0xbf,0x04,0x00,0xe9,0xff,
 0xff,0xff,0x5b,0x00,0x00,0x00,0xd0,0xff,0xff,0xbf,0x05,0xd0,0xff,0xff,0xff,
 0x7f,0x05,0x00,0x80,0xfe,0xff,0xff,0xff,0x2b,0x00,0x00,0x00,0xf0,0xff,0x7f,
 0x05,0xd0,0xff,0xff,0x2b,0x20,0xf5,0xff,0xff,0xdb,0x02,0x00,0xd0,0xff,0xff,
 0xff,0x0e,0x01,0x00,0x00,0xec,0xff,0xff,0x7f,0x01,0x68,0xff,0xff,0xff,0xff,
 0x02,0x00,0x40,0xef,0xff,0xff,0xff,0x17,0x00,0x00,0x00,0xda,0xff,0xff,0x11,
 0xa0,0xff,0x7f,0x05,0x00,0xf8,0xff,0xff,0x2f,0x00,0x00,0xd4,0xff,0xff,0xbf,
 0x03,0x00,0x00,0x00,0xf2,0xfb,0xff,0xff,0x05,0xd2,0xfd,0xff,0xff,0x7f,0x01,
 0x00,0x20,0xbd,0xff,0xff,0xf7,0x0b,0x00,0x00,0x00,0xe0,0xff,0x2f,0x02,0x40,
 0xff,0x5f,0x01,0x00,0xa5,0xff,0xff,0x2d,0x01,0x00,0xa0,0xfe,0xff,0xff,0x10,
 0x00,0x00,0x00,0xa8,0x5e,0x55,0x55,0x00,0xa8,0xab,0xaa,0x56,0x55,0x05,0x00,
 0x80,0x76,0x55,0x55,0xad,0x2a,0x00,0x00,0x00,0x50,0x7d,0xab,0x00,0x50,0xfd,
 0xb7,0x08,0x00,0xd0,0xfe,0x77,0x15,0x00,0x00,0x00,0xfb,0xff,0x15,0x05,0x00,
 0x00,0x00,0xa4,0xa2,0xaa,0xaa,0x02,0x40,0x55,0x55,0x55,0x55,0x01,0x00,0x90,
 0xaa,0xaa,0xaa,0xaa,0x0a,0x00,0x00,0x00,0x44,0xaf,0x15,0x00,0x80,0x56,0x15,
 0x00,0x00,0x24,0xb5,0xae,0x42,0x00,0x00,0x40,0xad,0xad,0x56,0x00,0x00,0x00,
 0x00,0x80,0x94,0x2a,0x25,0x00,0x90,0x94,0x54,0xa9,0x24,0x00,0x00,0x00,0x90,
 0x52,0x92,0x24,0x01,0x00,0x00,0x00,0x80,0xa8,0x44,0x00,0x00,0x54,0x95,0x00,
 0x00,0x40,0x55,0xa9,0x00,0x00,0x00,0x00,0x52,0xb5,0x0a,0x00,0x00,0x00,0x00,
 0x10,0x20,0x00,0x80,0x00,0x00,0x00,0x00,0x00,0x00,0x00,0x00,0x40,0x04,0x00,
 0x00,0x10,0x00,0x00,0x00,0x00,0x10,0x52,0x02,0x00,0x80,0x52,0x02,0x00,0x00,
 0x00,0x48,0x15,0x04,0x00,0x00,0x00,0x48,0x42,0x81,0x00,0x00,0x00,0x00,0x00,
 0x00,0x00,0x00,0x00,0x00,0x00,0x00,0x00,0x00,0x00,0x00,0x00,0x00,0x00,0x00,
 0x00,0x00,0x00,0x00,0x00,0x00,0x00,0x00,0x00,0x00,0x00,0x00,0x00,0x00,0x00,
 0x02,0x40,0x00,0x00,0x00,0x00,0x00,0x08,0x04,0x00,0x00,0x00,0x00,0x00,0x00,
 0x00,0x00,0x00,0x00,0x00,0x00,0x00,0x00,0x00,0x00,0x00,0x00,0x00,0x00,0x00,
 0x00,0x00,0x00,0x00,0x00,0x44,0x00,0x00,0x00,0x08,0x01,0x00,0x00,0x00,0x10,
 0x00,0x00,0x00,0x00,0x00,0x20,0x00,0x00,0x00,0x00,0x00,0x00,0x00,0x00,0x00,
 0x00,0x00,0x00,0x00,0x00,0x00,0x00,0x00,0x00,0x00,0x00,0x00,0x00,0x00,0x00,
 0x00,0x00,0x00,0x00,0x00,0x00,0x00,0x00,0x00,0x00,0x00,0x00,0x00,0x00,0x00,
 0x00,0x00,0x00,0x00,0x00,0x00,0x00,0x00,0x00,0x00,0x00,0x00,0x00,0x00,0x00,
 0x00,0x00,0x00,0x00,0x00,0x00,0x00,0x00,0x00,0x00,0x00,0x00,0x00,0x00,0x00,
 0x00,0x00,0x00,0x00,0x00,0x00,0x00,0x00,0x00,0x00,0x00,0x00,0x00,0x00,0x00,
 0x00,0x00,0x00,0x00,0x00,0x00,0x00,0x00,0x00};
